<svg id="Component_2_1" data-name="Component 2 – 1" xmlns="http://www.w3.org/2000/svg" width="69" height="69" viewBox="0 0 69 69">
  <rect id="Rectangle_71" data-name="Rectangle 71" width="69" height="69" rx="34.5" fill="#f98126"/>
  <g id="envelope" transform="translate(18 -29.2)">
    <g id="Group_81" data-name="Group 81" transform="translate(0 51.2)">
      <path id="Path_13" data-name="Path 13" d="M29.092,51.2H3.232A3.232,3.232,0,0,0,0,54.432V73.827a3.232,3.232,0,0,0,3.232,3.232H29.092a3.232,3.232,0,0,0,3.232-3.232V54.432A3.232,3.232,0,0,0,29.092,51.2ZM1.616,57.358,11.29,64.13,1.616,70.9ZM30.708,73.827a1.618,1.618,0,0,1-1.616,1.616H3.232a1.618,1.618,0,0,1-1.616-1.616v-.954L12.7,65.116l3,2.1a.808.808,0,0,0,.928,0l3-2.1,11.082,7.758Zm0-2.926L21.034,64.13l9.674-6.772Zm0-15.515L16.162,65.568,1.616,55.386v-.954a1.618,1.618,0,0,1,1.616-1.616H29.092a1.618,1.618,0,0,1,1.616,1.616v.954Z" transform="translate(0 -51.2)" fill="#fff"/>
    </g>
  </g>
</svg>
