<svg id="Component_5_1" data-name="Component 5 – 1" xmlns="http://www.w3.org/2000/svg" width="69" height="69" viewBox="0 0 69 69">
  <rect id="Rectangle_75" data-name="Rectangle 75" width="69" height="69" rx="34.5" fill="#f98126"/>
  <path id="github" d="M25.635,36.269H11.745V32.41H9.555a5.431,5.431,0,0,1-5.055-3.5l-.81-2.17a.772.772,0,0,0-.723-.5H2.485A2.315,2.315,0,0,1,.2,23.536a2.381,2.381,0,0,1,2.363-1.929H4.3a3.859,3.859,0,0,1,3.55,2.334l.916,2.132a1.544,1.544,0,0,0,1.418.936h1.563a6.679,6.679,0,0,1,1.833-4.437l.212-.2c-4.9-1.62-8.218-5.595-8.218-10.022A9.347,9.347,0,0,1,7.115,7.253V4.041A8.122,8.122,0,0,1,7.964.424L8.185,0H9.517a6.135,6.135,0,0,1,4.37,1.8l.367.367a15.934,15.934,0,0,1,8.894,0l.367-.367A6.135,6.135,0,0,1,27.873,0H29.2l.212.424a8.122,8.122,0,0,1,.849,3.617V7.253a9.347,9.347,0,0,1,1.543,5.093c0,4.427-3.318,8.4-8.218,10.022l.183.183a6.213,6.213,0,0,1,1.862,4.418ZM13.288,34.725h10.8V26.97a4.659,4.659,0,0,0-1.4-3.309l-2.141-2.093,1.37-.318c4.91-1.158,8.344-4.813,8.344-8.9a7.831,7.831,0,0,0-1.408-4.427l-.135-.193V4.041a6.58,6.58,0,0,0-.492-2.5h-.357A4.6,4.6,0,0,0,24.6,2.9L23.561,3.935l-.453-.155a14.356,14.356,0,0,0-8.836,0l-.453.155L12.777,2.9a4.6,4.6,0,0,0-3.27-1.36H9.15a6.58,6.58,0,0,0-.492,2.5V7.726l-.135.193a7.833,7.833,0,0,0-1.408,4.427c0,4.09,3.434,7.746,8.344,8.894l1.37.318-2.17,2.122a5.211,5.211,0,0,0-1.379,3.453,1.543,1.543,0,0,1-1.534,1.418H10.182A3.087,3.087,0,0,1,7.346,26.68L6.44,24.549a2.316,2.316,0,0,0-2.132-1.4H2.571a.832.832,0,0,0-.839.637.772.772,0,0,0,.752.907h.473a2.324,2.324,0,0,1,2.17,1.5l.81,2.161a3.878,3.878,0,0,0,3.617,2.508h2.19a1.543,1.543,0,0,1,1.543,1.543Zm0,0" transform="translate(16.834 16.001)" fill="#fff"/>
</svg>
