<svg id="Component_4_1" data-name="Component 4 – 1" xmlns="http://www.w3.org/2000/svg" width="69" height="68" viewBox="0 0 69 68">
  <rect id="Rectangle_74" data-name="Rectangle 74" width="69" height="68" rx="34" fill="#f98126"/>
  <g id="instagram" transform="translate(19 19)">
    <path id="Path_7" data-name="Path 7" d="M22.476,0H8.342A8.352,8.352,0,0,0,0,8.342V22.476a8.352,8.352,0,0,0,8.342,8.342H22.476a8.352,8.352,0,0,0,8.342-8.342V8.342A8.352,8.352,0,0,0,22.476,0Zm6.536,22.476a6.543,6.543,0,0,1-6.536,6.535H8.342a6.543,6.543,0,0,1-6.536-6.535V8.342A6.543,6.543,0,0,1,8.342,1.807H22.476a6.543,6.543,0,0,1,6.535,6.536Zm0,0" fill="#fff"/>
    <path id="Path_8" data-name="Path 8" d="M124.431,116a8.427,8.427,0,1,0,8.427,8.427A8.436,8.436,0,0,0,124.431,116Zm0,15.047a6.62,6.62,0,1,1,6.62-6.62A6.628,6.628,0,0,1,124.431,131.051Zm0,0" transform="translate(-109.021 -109.021)" fill="#fff"/>
    <path id="Path_9" data-name="Path 9" d="M360.467,66.285a2.49,2.49,0,1,0,2.49,2.49A2.493,2.493,0,0,0,360.467,66.285Zm0,3.173a.683.683,0,1,1,.684-.683A.684.684,0,0,1,360.467,69.458Zm0,0" transform="translate(-336.429 -62.295)" fill="#fff"/>
  </g>
</svg>
