<svg id="Component_3_1" data-name="Component 3 – 1" xmlns="http://www.w3.org/2000/svg" width="69" height="68" viewBox="0 0 69 68">
  <rect id="Rectangle_73" data-name="Rectangle 73" width="69" height="68" rx="34" fill="#f98126"/>
  <g id="linkedin_1_" data-name="linkedin (1)" transform="translate(18 12.733)">
    <g id="Group_79" data-name="Group 79" transform="translate(-1 4.267)">
      <g id="Group_78" data-name="Group 78">
        <path id="Path_10" data-name="Path 10" d="M3.657,4.267A4.613,4.613,0,0,0-1,8.867,4.61,4.61,0,0,0,.38,12.144,4.385,4.385,0,0,0,3.6,13.467h.115a4.359,4.359,0,0,0,3.1-1.323A4.61,4.61,0,0,0,8.2,8.867a4.3,4.3,0,0,0-1.323-3.22A4.352,4.352,0,0,0,3.657,4.267Zm2.358,7.072a3.167,3.167,0,0,1-2.415.978,3.49,3.49,0,0,1-2.415-.978A3.344,3.344,0,0,1,.15,8.867a3.436,3.436,0,0,1,3.507-3.45,3.355,3.355,0,0,1,2.358.978A3.437,3.437,0,0,1,7.05,8.867,3.344,3.344,0,0,1,6.015,11.339Z" transform="translate(1 -4.267)" fill="#fff"/>
        <path id="Path_11" data-name="Path 11" d="M13.858,157.867H9.2a1.682,1.682,0,0,0-1.668,1.725v20.125a1.769,1.769,0,0,0,1.725,1.725h4.6a1.759,1.759,0,0,0,1.725-1.668V159.592A1.769,1.769,0,0,0,13.858,157.867Zm.575,21.907a.567.567,0,0,1-.575.517h-4.6a.618.618,0,0,1-.575-.575V159.592a.567.567,0,0,1,.517-.575h4.657a.618.618,0,0,1,.575.575Z" transform="translate(-6.958 -147.517)" fill="#fff"/>
        <path id="Path_12" data-name="Path 12" d="M183.82,149.333h-1.208a7.768,7.768,0,0,0-5.75,2.53v-.805a1.237,1.237,0,0,0-1.15-1.15h-5.75a1.181,1.181,0,0,0-1.15,1.092v21.447a1.13,1.13,0,0,0,1.15,1.035h6.325a1.13,1.13,0,0,0,1.15-1.035v-12.42a3.246,3.246,0,0,1,3.162-3.393,3.389,3.389,0,0,1,2.415.978,3.019,3.019,0,0,1,.805,2.358v12.362a1.237,1.237,0,0,0,1.15,1.15h5.75a1.237,1.237,0,0,0,1.15-1.15V157.5A7.991,7.991,0,0,0,183.82,149.333Zm6.9,22.942-.057.057h-5.635l-.057-12.362a4.235,4.235,0,0,0-1.092-3.162,4.522,4.522,0,0,0-3.22-1.323,4.433,4.433,0,0,0-4.312,4.542v12.3h-6.325V151.058h5.692l.057.057v3.622l1.552-1.553.057-.057a6.561,6.561,0,0,1,5.29-2.645h1.208a6.861,6.861,0,0,1,6.842,7.015Z" transform="translate(-157.371 -139.558)" fill="#fff"/>
      </g>
    </g>
  </g>
</svg>
